<?xml version="1.0" standalone="no"?>
<!DOCTYPE svg PUBLIC "-//W3C//DTD SVG 20010904//EN"
 "http://www.w3.org/TR/2001/REC-SVG-20010904/DTD/svg10.dtd">
<svg version="1.0" xmlns="http://www.w3.org/2000/svg"
 width="400.000000pt" height="165.000000pt" viewBox="0 0 400.000000 165.000000"
 preserveAspectRatio="xMidYMid meet">

<g transform="translate(0.000000,165.000000) scale(0.100000,-0.100000)"
fill="#1e1e15" stroke="none">
<path d="M0 825 l0 -825 2000 0 2000 0 0 825 0 825 -2000 0 -2000 0 0 -825z
m3372 628 c10 -9 18 -29 18 -45 l0 -28 91 0 c142 0 129 36 129 -360 0 -290 -2
-341 -15 -354 -13 -13 -65 -15 -368 -15 -309 0 -354 2 -369 16 -17 15 -18 42
-18 338 0 236 3 324 12 333 8 8 52 12 130 12 l118 0 0 46 c0 67 13 73 144 74
88 0 113 -3 128 -17z m-2077 -175 c64 -35 105 -102 105 -173 0 -57 -20 -101
-65 -145 l-35 -34 27 -35 c15 -20 30 -38 33 -41 17 -13 90 -118 90 -128 0 -8
-23 -12 -69 -12 l-69 0 -34 43 c-33 42 -55 68 -99 119 -13 15 -35 28 -49 30
-25 3 -25 3 -28 -94 l-3 -98 -64 0 -65 0 0 294 0 295 28 3 c68 8 268 -8 297
-24z m-522 8 c52 -21 104 -83 117 -138 15 -61 8 -102 -29 -160 -40 -62 -95
-88 -189 -88 l-72 0 0 -95 0 -96 -67 3 -68 3 -3 293 -2 292 140 0 c96 0 151
-4 173 -14z m867 -281 l0 -295 -65 0 -65 0 0 295 0 295 65 0 65 0 0 -295z
m231 195 c16 -52 43 -146 61 -208 18 -63 35 -107 38 -100 4 7 26 81 49 163 23
83 49 171 57 198 l16 47 69 0 c57 0 69 -3 69 -16 0 -17 -42 -156 -129 -424
l-47 -145 -88 0 -87 0 -34 105 c-80 252 -134 427 -141 453 l-6 28 72 -3 73 -3
28 -95z m569 18 c23 -46 47 -88 54 -95 8 -9 23 10 61 82 l50 95 73 0 c39 0 72
-4 72 -9 0 -5 -40 -79 -90 -165 l-90 -157 0 -130 0 -130 -67 3 -68 3 -3 135
c-2 93 -7 139 -16 150 -7 8 -26 40 -43 70 -16 30 -50 91 -76 135 -25 44 -43
83 -41 87 3 5 36 8 74 8 l68 0 42 -82z m578 -780 c-3 -119 -4 -123 -25 -126
-23 -3 -23 -2 -23 122 l0 126 25 0 26 0 -3 -122z m202 93 c0 -24 -13 -33 -34
-25 -27 10 -20 44 9 44 18 0 25 -5 25 -19z m-1522 -23 c2 -16 9 -28 18 -28 18
0 18 -27 0 -37 -10 -5 -16 -29 -18 -68 -3 -54 -5 -60 -25 -63 -22 -3 -23 0
-23 58 0 45 -4 62 -15 66 -8 4 -15 15 -15 25 0 10 7 19 15 19 10 0 15 10 15
31 0 26 3 30 23 27 16 -2 23 -11 25 -30z m1422 7 c0 -14 7 -28 15 -31 19 -8
20 -40 1 -47 -10 -4 -16 -25 -18 -64 -3 -50 -6 -58 -23 -58 -17 0 -20 8 -23
58 -2 39 -8 60 -18 64 -19 7 -18 39 1 47 8 3 15 14 15 24 0 24 8 32 32 32 13
0 18 -7 18 -25z m-2587 -36 c25 -14 37 -28 37 -46 0 -16 -34 -17 -61 -3 -42
23 -80 -30 -44 -60 13 -11 23 -10 56 0 29 10 43 10 51 2 18 -18 -38 -62 -79
-62 -46 0 -93 46 -93 90 0 64 76 109 133 79z m202 -9 c53 -33 59 -83 16 -129
-58 -62 -154 -27 -154 57 0 41 11 58 48 80 29 17 54 15 90 -8z m346 -9 c33
-34 38 -74 12 -111 -25 -36 -34 -41 -78 -38 -39 3 -40 2 -37 -28 3 -33 -14
-49 -43 -37 -13 4 -15 24 -13 117 l3 111 40 6 c75 11 86 10 116 -20z m198 3
c25 -20 31 -34 31 -64 0 -83 -92 -120 -151 -61 -82 82 31 200 120 125z m301 4
c17 -19 20 -33 18 -88 l-3 -65 -59 -2 c-67 -3 -86 8 -86 46 0 37 17 51 62 51
27 0 38 4 38 15 0 18 -31 20 -47 4 -13 -13 -43 -5 -43 11 0 5 9 19 20 30 27
27 74 26 100 -2z m311 -7 c17 -17 29 -40 29 -55 0 -25 -2 -26 -61 -26 -44 0
-59 -3 -56 -12 3 -9 21 -12 56 -10 55 3 64 -8 29 -32 -63 -44 -148 2 -148 80
0 37 51 84 90 84 22 0 41 -9 61 -29z m269 14 c17 -9 30 -17 30 -19 0 -3 3 -11
6 -20 5 -12 0 -16 -22 -16 -16 0 -36 4 -43 9 -22 14 -51 -6 -51 -34 0 -18 7
-26 26 -31 14 -4 30 -2 37 5 16 16 57 14 57 -3 0 -24 -50 -56 -87 -56 -49 0
-83 37 -83 90 0 42 9 57 45 78 27 16 51 15 85 -3z m211 -14 c41 -41 40 -90 -2
-125 -41 -35 -88 -35 -123 0 -34 35 -36 91 -3 121 45 42 89 43 128 4z m188 11
c19 -15 22 -25 19 -87 -3 -62 -5 -70 -23 -70 -18 0 -20 8 -23 63 -3 59 -5 63
-25 60 -19 -3 -23 -11 -27 -63 -4 -52 -8 -60 -25 -60 -18 0 -20 8 -23 82 l-3
82 38 4 c21 2 45 4 54 5 9 1 27 -6 38 -16z m179 -9 c21 -29 14 -36 -34 -28
-50 7 -55 -8 -7 -20 54 -13 70 -50 36 -87 -31 -35 -123 -14 -123 29 0 16 42
17 57 2 6 -6 17 -8 24 -4 7 5 -3 15 -32 29 -37 18 -44 25 -44 51 0 21 7 33 25
42 30 16 80 9 98 -14z m655 9 c22 -24 28 -139 8 -151 -29 -18 -41 -1 -41 60 0
51 -2 59 -19 59 -24 0 -31 -19 -31 -82 0 -46 -2 -49 -22 -46 -21 3 -23 9 -26
85 l-3 82 43 4 c24 2 50 4 59 5 9 1 23 -6 32 -16z m220 8 c4 0 7 -43 7 -95 0
-88 -2 -98 -25 -120 -16 -17 -35 -25 -58 -25 -37 0 -87 32 -87 56 0 17 41 19
57 3 16 -16 57 -7 61 15 3 14 0 16 -13 9 -26 -15 -74 -3 -95 25 -29 36 -26 78
9 112 26 26 34 29 82 25 30 -2 57 -4 62 -5z m-2713 -24 c0 -16 -7 -27 -19 -31
-16 -5 -21 -17 -23 -58 -3 -45 -6 -52 -25 -55 -22 -3 -23 -1 -23 82 l0 86 45
0 c41 0 45 -2 45 -24z m540 -3 c0 -13 -6 -23 -15 -23 -21 0 -35 -32 -35 -80 0
-37 -2 -41 -22 -38 -21 3 -23 9 -26 85 l-3 82 51 -1 c45 -1 50 -4 50 -25z
m1390 -32 c0 -41 4 -60 14 -64 23 -9 36 15 36 70 0 50 1 53 25 53 26 0 26 0
23 -82 l-3 -82 -59 -3 c-77 -3 -86 7 -86 96 0 69 1 71 25 71 24 0 25 -3 25
-59z m390 -26 c0 -47 -4 -85 -9 -85 -35 0 -41 13 -41 91 0 78 0 79 25 79 25 0
25 -1 25 -85z"/>
<path d="M3143 1443 c-7 -3 -13 -13 -13 -24 0 -18 8 -19 115 -19 108 0 115 1
115 20 0 14 -7 20 -22 21 -13 0 -59 1 -103 3 -44 2 -86 1 -92 -1z"/>
<path d="M3130 1355 c0 -12 19 -15 115 -15 96 0 115 3 115 15 0 12 -19 15
-115 15 -96 0 -115 -3 -115 -15z"/>
<path d="M3390 1320 l0 -41 93 3 92 3 0 35 0 35 -92 3 -93 3 0 -41z"/>
<path d="M2874 1316 c-3 -8 -4 -25 -2 -38 3 -22 6 -23 113 -23 l110 0 3 38 3
37 -111 0 c-87 0 -112 -3 -116 -14z"/>
<path d="M3130 1060 l0 -260 115 0 115 0 -2 258 -3 257 -112 3 -113 3 0 -261z
m150 78 c17 -34 30 -69 30 -77 0 -23 -57 -141 -68 -141 -5 0 -23 30 -40 68
l-30 67 20 50 c20 51 45 95 53 95 3 0 19 -28 35 -62z"/>
<path d="M3226 1112 c-20 -39 -20 -65 -1 -103 19 -36 27 -32 44 19 12 34 11
43 -7 77 l-19 39 -17 -32z"/>
<path d="M3390 1015 l0 -245 95 0 95 0 0 245 0 245 -95 0 -95 0 0 -245z m123
98 c40 -92 39 -91 11 -165 -34 -86 -50 -86 -86 4 l-27 68 30 65 c16 36 35 65
42 65 7 0 21 -17 30 -37z"/>
<path d="M3457 1053 c-13 -33 -13 -41 3 -75 24 -54 25 -54 44 -5 15 40 15 47
1 80 -8 20 -19 37 -24 37 -5 0 -15 -17 -24 -37z"/>
<path d="M2870 1000 l0 -230 115 0 115 0 0 230 0 230 -115 0 -115 0 0 -230z
m157 71 c28 -62 29 -72 17 -98 -7 -15 -20 -45 -28 -65 -26 -65 -45 -51 -86 63
-12 34 -11 42 16 103 15 36 33 66 39 66 6 0 25 -31 42 -69z"/>
<path d="M2966 1046 c-16 -41 -16 -51 -4 -82 8 -20 19 -36 24 -36 5 0 16 18
24 41 13 37 13 44 -6 82 l-20 42 -18 -47z"/>
<path d="M3130 760 c0 -20 5 -21 112 -18 98 3 113 5 116 21 3 15 -7 17 -112
17 -110 0 -116 -1 -116 -20z"/>
<path d="M2872 713 l3 -38 110 0 110 0 3 38 3 37 -116 0 -116 0 3 -37z"/>
<path d="M3390 710 l0 -41 93 3 92 3 3 38 3 37 -95 0 -96 0 0 -40z"/>
<path d="M3132 698 c3 -22 7 -23 113 -23 106 0 110 1 113 23 3 22 2 22 -113
22 -115 0 -116 0 -113 -22z"/>
<path d="M1112 1172 c-9 -6 -12 -30 -10 -78 l3 -69 39 -3 c80 -7 116 18 116
77 0 25 -7 44 -20 56 -22 20 -107 31 -128 17z"/>
<path d="M608 1174 c-5 -4 -8 -41 -8 -82 l0 -74 61 4 c70 5 99 28 99 78 0 47
-28 70 -90 77 -30 3 -58 2 -62 -3z"/>
<path d="M654 426 c-3 -8 -4 -25 -2 -38 2 -18 9 -23 33 -23 26 0 30 4 33 29 2
16 -2 32 -10 37 -20 13 -48 11 -54 -5z"/>
<path d="M984 416 c-9 -39 2 -58 32 -54 57 7 57 69 1 76 -21 3 -28 -2 -33 -22z"/>
<path d="M1190 421 c-25 -47 36 -83 64 -38 8 12 8 22 0 35 -16 25 -51 27 -64
3z"/>
<path d="M1505 369 c-4 -6 -2 -15 5 -19 17 -10 42 -1 37 14 -5 16 -34 19 -42
5z"/>
<path d="M1805 430 c-4 -6 7 -10 24 -10 17 0 31 5 31 10 0 6 -11 10 -24 10
-14 0 -28 -4 -31 -10z"/>
<path d="M2280 425 c-26 -32 13 -81 48 -59 22 14 27 41 12 59 -16 19 -44 19
-60 0z"/>
<path d="M3502 428 c-32 -32 7 -80 49 -58 30 17 23 64 -11 68 -14 2 -31 -3
-38 -10z"/>
</g>
</svg>
